<svg xmlns="http://www.w3.org/2000/svg" viewBox="0 0 80 125.42"><defs><style>.cls-1{fill:#ded4c8;}</style></defs><g id="レイヤー_2" data-name="レイヤー 2"><g id="レイヤー_1-2" data-name="レイヤー 1"><path class="cls-1" d="M12.84,79.81,9,77.92V89.57l3.89,1.89Z"/><path class="cls-1" d="M32.26,89.28l-3.89-1.89V99l3.89,1.89Z"/><path class="cls-1" d="M12.84,103.11l15.53,7.58V106.8L12.84,99.23Z"/><path class="cls-1" d="M74.18,62.28V47.7a33.27,33.27,0,0,0-4.28-15C66,25.78,57.59,17.58,40,17.58V9.3l7.62-3,2.5-1L47.71,4,42.65,1.37,40,0,37.51,1,2.69,14.93.07,16H0V77.92H0v27.51l40,20,40-20V65.19ZM39.72,1.8,46,5.1,10.45,19.33,4.15,16ZM2.63,17.38,7.7,20l2.43,1.26,2.69-1.08,24.87-10v7.39c-16,.7-23.79,8.46-27.54,15a33.14,33.14,0,0,0-4.28,15V62.27L2.34,64V17.23Zm36.25,104.9L2.33,104V67.74L38.88,86ZM40,84,8.23,68.13V47.7a31.25,31.25,0,0,1,4-13.91C15.83,27.46,23.6,19.91,40,19.91S64.2,27.46,67.83,33.79a31.51,31.51,0,0,1,4,13.91V68.13Zm37.69,20L41.17,122.28V86L64.61,74.29l13.1-6.55Z"/><path class="cls-1" d="M54.23,59.25H64.89l-7.1-7.11Z"/><path class="cls-1" d="M47,53.21l3.73-1.08V43.61L47,44.68Z"/><path class="cls-1" d="M61.34,40.07V48.6l3.73-1.08V39Z"/></g></g></svg>